<svg viewBox="0 0 600 600" xmlns="http://www.w3.org/2000/svg" role="img" aria-label="Plant Parent Club sticker sheet">
  <rect width="600" height="600" fill="#F2F7ED"/>
  <rect x="70" y="60" width="460" height="480" rx="36" fill="#FFFFFF" stroke="#DDE9D5" stroke-width="6"/>
  <text x="300" y="125" text-anchor="middle" font-family="Georgia, serif" font-size="36" font-weight="bold" fill="#48663F">plant parent club</text>
  <!-- monstera -->
  <g transform="translate(130,170)">
    <path d="M40 60C20 20 70-10 80 40c10-50 60-20 40 20-12 24-50 26-60 24-10 2-48 0-20-24Z" fill="#7BA974"/>
    <rect x="28" y="80" width="84" height="64" rx="14" fill="#FAD3E0"/>
    <circle cx="56" cy="106" r="5" fill="#43382E"/>
    <circle cx="84" cy="106" r="5" fill="#43382E"/>
    <path d="M62 120c5 5 12 5 17 0" stroke="#43382E" stroke-width="5" stroke-linecap="round" fill="none"/>
  </g>
  <!-- cactus -->
  <g transform="translate(330,170)">
    <rect x="48" y="10" width="44" height="84" rx="22" fill="#8FAE8B"/>
    <rect x="20" y="34" width="30" height="16" rx="8" fill="#8FAE8B"/>
    <rect x="90" y="22" width="30" height="16" rx="8" fill="#8FAE8B"/>
    <path d="M58 34v8M82 30v8M70 56v8" stroke="#5C7A58" stroke-width="4" stroke-linecap="round"/>
    <rect x="32" y="92" width="76" height="56" rx="13" fill="#FBE7A8"/>
    <circle cx="60" cy="44" r="4" fill="#43382E"/>
    <circle cx="80" cy="44" r="4" fill="#43382E"/>
    <path d="M64 58c4 4 9 4 13 0" stroke="#43382E" stroke-width="4" stroke-linecap="round" fill="none"/>
  </g>
  <!-- pothos -->
  <g transform="translate(120,360)">
    <path d="M40 50c-26 4-30-34-2-32 2-26 40-22 38 4 26-8 34 28 4 32-8 2-30 0-40-4Z" fill="#7BA974"/>
    <path d="M76 56c14 18 4 34-12 44" stroke="#5C7A58" stroke-width="6" stroke-linecap="round" fill="none"/>
    <rect x="24" y="56" width="72" height="54" rx="13" fill="#FFE3D0"/>
    <circle cx="48" cy="78" r="4.5" fill="#43382E"/>
    <circle cx="72" cy="78" r="4.5" fill="#43382E"/>
    <path d="M53 90c4 4 10 4 14 0" stroke="#43382E" stroke-width="4" stroke-linecap="round" fill="none"/>
  </g>
  <!-- snake plant -->
  <g transform="translate(260,350)">
    <path d="M40 100C30 60 34 30 44 6c8 26 8 60 4 94ZM62 100c-4-46 0-74 12-98 6 28 2 66-4 98ZM84 100c-2-38 4-60 16-78 2 26-4 54-8 78Z" fill="#8FAE8B"/>
    <rect x="26" y="98" width="84" height="54" rx="13" fill="#FAD3E0"/>
    <circle cx="56" cy="120" r="4.5" fill="#43382E"/>
    <circle cx="80" cy="120" r="4.5" fill="#43382E"/>
    <path d="M61 132c4 4 10 4 14 0" stroke="#43382E" stroke-width="4" stroke-linecap="round" fill="none"/>
  </g>
  <!-- dramatic fern -->
  <g transform="translate(400,350)">
    <path d="M60 96C30 80 20 40 36 10c10 24 16 40 24 50C56 36 60 20 74 4c10 30 4 70-14 92Z" fill="#7BA974"/>
    <path d="M86 96c20-14 28-44 18-66-10 18-16 34-18 66Z" fill="#8FAE8B"/>
    <rect x="34" y="94" width="76" height="56" rx="13" fill="#FBE7A8"/>
    <path d="M56 116c3-4 8-4 11 0M80 116c3-4 8-4 11 0" stroke="#43382E" stroke-width="4" stroke-linecap="round" fill="none"/>
    <path d="M64 132c5-4 14-4 19 0" stroke="#43382E" stroke-width="4" stroke-linecap="round" fill="none"/>
  </g>
</svg>
