<svg width="240" height="240" viewBox="0 0 48 48" fill="none" xmlns="http://www.w3.org/2000/svg" role="img" aria-label="Curvy Noodle logo">
  <rect width="48" height="48" rx="12" fill="#FFFBF4"/>
  <!-- curly hair -->
  <g fill="#2a211e">
    <circle cx="24" cy="19" r="15"/>
    <circle cx="11" cy="17" r="5"/>
    <circle cx="9.5" cy="25" r="4.5"/>
    <circle cx="12.5" cy="31.5" r="4"/>
    <circle cx="37" cy="17" r="5"/>
    <circle cx="38.5" cy="25" r="4.5"/>
    <circle cx="35.5" cy="31.5" r="4"/>
    <circle cx="16" cy="10.5" r="5"/>
    <circle cx="24" cy="8" r="5.5"/>
    <circle cx="32" cy="10.5" r="5"/>
  </g>
  <!-- face -->
  <circle cx="24" cy="26" r="12" fill="#f4c19a"/>
  <!-- cheeks -->
  <circle cx="17" cy="29" r="2.6" fill="#e89b9b" opacity=".85"/>
  <circle cx="31" cy="29" r="2.6" fill="#e89b9b" opacity=".85"/>
  <!-- brows -->
  <path d="M17.6 22q2.4-1.6 4.8 0M25.6 22q2.4-1.6 4.8 0" stroke="#2a211e" stroke-width="1.4" stroke-linecap="round" fill="none"/>
  <!-- eyes -->
  <circle cx="20" cy="25" r="1.7" fill="#2a211e"/>
  <circle cx="28" cy="25" r="1.7" fill="#2a211e"/>
  <!-- open smile with red lips + teeth -->
  <path d="M18.5 30.5 C 20.2 35.5, 27.8 35.5, 29.5 30.5 Z" fill="#bb3b46"/>
  <path d="M18.5 30.5 C 21 32.2, 27 32.2, 29.5 30.5 Z" fill="#fff"/>
</svg>
