<svg viewBox="0 0 1200 675" xmlns="http://www.w3.org/2000/svg" role="img" aria-label="Daily activity stickers — a ticked-off checklist">
  <defs>
    <pattern id="dots" width="38" height="38" patternUnits="userSpaceOnUse">
      <circle cx="4" cy="4" r="2.4" fill="#43382E" opacity="0.07"/>
    </pattern>
  </defs>
  <rect width="1200" height="675" fill="#FFFBF4"/>
  <rect width="1200" height="675" fill="url(#dots)"/>
  <circle cx="1140" cy="620" r="200" fill="#FFE3D0" opacity="0.45"/>
  <circle cx="70" cy="110" r="130" fill="#DDE9D5" opacity="0.4"/>
  <g transform="rotate(-16 150 90)">
    <rect x="10" y="64" width="260" height="46" rx="6" fill="#FAD3E0" opacity="0.9"/>
    <path d="M30 87h220" stroke="#B02D63" stroke-width="3" stroke-dasharray="2 13" stroke-linecap="round" opacity="0.5"/>
  </g>
  <circle cx="1052" cy="135" r="20" fill="#FAD3E0"/>
  <circle cx="1100" cy="135" r="20" fill="#DDE9D5"/>
  <circle cx="1148" cy="135" r="20" fill="#FBE7A8"/>

  <rect x="400" y="175" width="400" height="320" rx="24" fill="#FFFFFF" stroke="#F8EFDE" stroke-width="5"/>
  <rect x="436" y="210" width="150" height="20" rx="10" fill="#FAD3E0"/>
  <!-- three checked rows -->
  <g>
    <rect x="436" y="270" width="48" height="48" rx="13" fill="#DDE9D5"/>
    <rect x="436" y="338" width="48" height="48" rx="13" fill="#DDE9D5"/>
    <rect x="436" y="406" width="48" height="48" rx="13" fill="#DDE9D5"/>
  </g>
  <g stroke="#48663F" stroke-width="7" fill="none" stroke-linecap="round" stroke-linejoin="round">
    <path d="M448 296 l9 10 16 -20"/>
    <path d="M448 364 l9 10 16 -20"/>
    <path d="M448 432 l9 10 16 -20"/>
  </g>
  <g stroke="#E7DBC8" stroke-width="9" stroke-linecap="round">
    <path d="M508 294h250M508 362h210M508 430h240"/>
  </g>

  <path d="M150 520 l9 24 24 9 -24 9 -9 24 -9 -24 -24 -9 24 -9 Z" fill="#FBE7A8"/>
</svg>
