<svg viewBox="0 0 1200 675" xmlns="http://www.w3.org/2000/svg" role="img" aria-label="Open journal decorated with stickers and washi tape">
  <rect width="1200" height="675" fill="#FFE3D0"/>
  <circle cx="180" cy="100" r="160" fill="#FAD3E0" opacity=".5"/>
  <circle cx="1060" cy="600" r="200" fill="#FBE7A8" opacity=".5"/>
  <!-- journal -->
  <rect x="330" y="120" width="540" height="430" rx="20" fill="#E8D5BC"/>
  <rect x="348" y="138" width="248" height="394" rx="12" fill="#FFFDF7"/>
  <rect x="604" y="138" width="248" height="394" rx="12" fill="#FFF9EE"/>
  <path d="M600 138v394" stroke="#D9C4A6" stroke-width="7"/>
  <g stroke="#D9CDBE" stroke-width="6" stroke-linecap="round">
    <path d="M375 200h190M375 240h190M375 280h150M375 320h190M375 360h170M375 400h190M375 440h130"/>
    <path d="M630 320h190M630 360h160M630 400h190M630 440h140"/>
  </g>
  <rect x="620" y="150" width="210" height="42" rx="6" fill="#FAD3E0" opacity=".85" transform="rotate(-2 725 171)"/>
  <rect x="350" y="470" width="160" height="36" rx="6" fill="#DDE9D5" opacity=".9" transform="rotate(3 430 488)"/>
  <!-- stickers -->
  <circle cx="745" cy="260" r="60" fill="#FAD3E0" stroke="#FFFFFF" stroke-width="8"/>
  <path d="M714 258h62a31 31 0 0 1-62 0Z" fill="#FFF7EC"/>
  <path d="M722 250c4-12 12-8 16-18M742 248c3-11 10-8 12-18M760 250c4-10 11-7 13-16" stroke="#F0B429" stroke-width="6" stroke-linecap="round" fill="none"/>
  <circle cx="800" cy="480" r="46" fill="#FBE7A8" stroke="#FFFFFF" stroke-width="7"/>
  <path d="M780 480a20 20 0 1 0 40 0 20 20 0 0 0-40 0Z" fill="#F2A65A"/>
  <circle cx="455" cy="520" r="6" fill="#B02D63"/>
  <!-- pen -->
  <rect x="900" y="380" width="240" height="26" rx="13" fill="#B02D63" transform="rotate(40 1020 393)"/>
</svg>
