<svg viewBox="0 0 1200 675" xmlns="http://www.w3.org/2000/svg" role="img" aria-label="A weekly planner spread with seven days and a few stickers">
  <defs>
    <pattern id="dots" width="38" height="38" patternUnits="userSpaceOnUse">
      <circle cx="4" cy="4" r="2.4" fill="#43382E" opacity="0.07"/>
    </pattern>
  </defs>
  <rect width="1200" height="675" fill="#FFFBF4"/>
  <rect width="1200" height="675" fill="url(#dots)"/>
  <circle cx="1140" cy="620" r="200" fill="#FFE3D0" opacity="0.45"/>
  <circle cx="70" cy="110" r="130" fill="#DDE9D5" opacity="0.4"/>
  <g transform="rotate(-16 150 90)">
    <rect x="10" y="64" width="260" height="46" rx="6" fill="#FAD3E0" opacity="0.9"/>
    <path d="M30 87h220" stroke="#B02D63" stroke-width="3" stroke-dasharray="2 13" stroke-linecap="round" opacity="0.5"/>
  </g>
  <circle cx="1052" cy="135" r="20" fill="#FAD3E0"/>
  <circle cx="1100" cy="135" r="20" fill="#DDE9D5"/>
  <circle cx="1148" cy="135" r="20" fill="#FBE7A8"/>

  <!-- weekly card -->
  <rect x="360" y="175" width="480" height="330" rx="22" fill="#FFFFFF" stroke="#F8EFDE" stroke-width="5"/>
  <rect x="392" y="205" width="180" height="22" rx="11" fill="#FBE7A8"/>
  <!-- 7 day columns -->
  <g>
    <rect x="392" y="252" width="54" height="226" rx="10" fill="#FFFBF4" stroke="#EFE3D0" stroke-width="3"/>
    <rect x="454" y="252" width="54" height="226" rx="10" fill="#FFFBF4" stroke="#EFE3D0" stroke-width="3"/>
    <rect x="516" y="252" width="54" height="226" rx="10" fill="#FFFBF4" stroke="#EFE3D0" stroke-width="3"/>
    <rect x="578" y="252" width="54" height="226" rx="10" fill="#FFFBF4" stroke="#EFE3D0" stroke-width="3"/>
    <rect x="640" y="252" width="54" height="226" rx="10" fill="#FFFBF4" stroke="#EFE3D0" stroke-width="3"/>
    <rect x="702" y="252" width="54" height="226" rx="10" fill="#FFFBF4" stroke="#EFE3D0" stroke-width="3"/>
    <rect x="764" y="252" width="54" height="226" rx="10" fill="#FFFBF4" stroke="#EFE3D0" stroke-width="3"/>
  </g>
  <g font-family="Verdana, Geneva, sans-serif" font-size="18" font-weight="bold" fill="#6B5C4E" text-anchor="middle">
    <text x="419" y="280">M</text><text x="481" y="280">T</text><text x="543" y="280">W</text><text x="605" y="280">T</text><text x="667" y="280">F</text><text x="729" y="280">S</text><text x="791" y="280">S</text>
  </g>
  <!-- stickers in a couple of days -->
  <g>
    <circle cx="419" cy="330" r="17" fill="#FAD3E0"/>
    <circle cx="413" cy="326" r="2.5" fill="#43382E"/><circle cx="425" cy="326" r="2.5" fill="#43382E"/>
    <path d="M412 337q7 6 14 0" stroke="#43382E" stroke-width="2.6" fill="none" stroke-linecap="round"/>
  </g>
  <path d="M543 322c-12-11-24 2-12 13l12 11 12-11c12-11 0-24-12-13Z" fill="#DDE9D5"/>
  <path d="M729 314 l5 14 15 1 -11 10 4 15 -13 -9 -13 9 4 -15 -11 -10 15 -1 Z" fill="#FBE7A8"/>
  <g stroke="#EADDCB" stroke-width="5" stroke-linecap="round">
    <path d="M402 392h34M464 392h34M526 420h34M650 392h34M712 420h34M774 392h34"/>
  </g>

  <path d="M150 540 l9 24 24 9 -24 9 -9 24 -9 -24 -24 -9 24 -9 Z" fill="#FBE7A8"/>
</svg>
