<svg viewBox="0 0 1200 675" xmlns="http://www.w3.org/2000/svg" role="img" aria-label="A planner page brightened with cute stickers">
  <defs>
    <pattern id="dots" width="38" height="38" patternUnits="userSpaceOnUse">
      <circle cx="4" cy="4" r="2.4" fill="#43382E" opacity="0.07"/>
    </pattern>
  </defs>
  <rect width="1200" height="675" fill="#FFFBF4"/>
  <rect width="1200" height="675" fill="url(#dots)"/>
  <circle cx="1140" cy="620" r="200" fill="#FFE3D0" opacity="0.45"/>
  <circle cx="70" cy="110" r="130" fill="#DDE9D5" opacity="0.4"/>
  <g transform="rotate(-16 150 90)">
    <rect x="10" y="64" width="260" height="46" rx="6" fill="#FAD3E0" opacity="0.9"/>
    <path d="M30 87h220" stroke="#B02D63" stroke-width="3" stroke-dasharray="2 13" stroke-linecap="round" opacity="0.5"/>
  </g>
  <circle cx="1052" cy="135" r="20" fill="#FAD3E0"/>
  <circle cx="1100" cy="135" r="20" fill="#DDE9D5"/>
  <circle cx="1148" cy="135" r="20" fill="#FBE7A8"/>

  <!-- planner page -->
  <rect x="430" y="150" width="340" height="370" rx="24" fill="#FFFFFF" stroke="#F8EFDE" stroke-width="5"/>
  <rect x="430" y="150" width="60" height="370" rx="24" fill="#FBE7A8" opacity="0.5"/>
  <line x1="494" y1="150" x2="494" y2="520" stroke="#F0E2CC" stroke-width="3"/>
  <rect x="525" y="186" width="170" height="24" rx="12" fill="#FAD3E0"/>
  <g stroke="#ECE0CF" stroke-width="9" stroke-linecap="round">
    <path d="M525 252h210M525 292h170M525 332h210M525 372h140M525 412h200"/>
  </g>
  <!-- placed smiley sticker -->
  <g transform="rotate(-10 690 300)">
    <circle cx="690" cy="300" r="34" fill="#DDE9D5" stroke="#FFFFFF" stroke-width="5"/>
    <circle cx="679" cy="294" r="4" fill="#43382E"/><circle cx="701" cy="294" r="4" fill="#43382E"/>
    <path d="M679 310q11 9 22 0" stroke="#43382E" stroke-width="4" fill="none" stroke-linecap="round"/>
  </g>
  <!-- floating peeling sticker -->
  <g transform="rotate(14 772 168)">
    <circle cx="772" cy="168" r="38" fill="#FBE7A8" stroke="#FFFFFF" stroke-width="5"/>
    <path d="M772 206a38 38 0 0 0 27-11l-15-9Z" fill="#E9D08A"/>
    <circle cx="760" cy="162" r="4" fill="#43382E"/><circle cx="784" cy="162" r="4" fill="#43382E"/>
    <path d="M760 178q12 9 24 0" stroke="#43382E" stroke-width="4" fill="none" stroke-linecap="round"/>
  </g>

  <path d="M150 520 l9 24 24 9 -24 9 -9 24 -9 -24 -24 -9 24 -9 Z" fill="#FBE7A8"/>
</svg>
